<?xml version="1.0" encoding="UTF-8"?>
<svg version="1.1" xmlns="http://www.w3.org/2000/svg" width="450" height="498">
<path d="M0 0 C0.99 0.66 1.98 1.32 3 2 C6.53552903 2.06080762 10.02420582 1.86708037 13.5546875 1.6796875 C17.65823023 2.06119601 19.21791449 3.00228972 22 6 C22.31249029 12.24980577 20.30379606 15.62348947 16.47265625 20.43359375 C14.14765932 22.9066011 13.03550159 22.99741807 9.5625 23.25 C6 23 6 23 4.3671875 21.765625 C2.33162051 19.13683563 1.78268841 16.33089966 0.94140625 13.15625 C-0.27074059 10.37988046 -1.37420596 9.50362193 -4 8 C-19.11576056 3.32085374 -33.7985705 4.09769572 -48.2578125 10.42578125 C-59.49494608 16.35053697 -68.96195931 25.13828394 -74 37 C-74.4054103 39.32189536 -74.76072994 41.65515344 -75 44 C-75.66 44.66 -76.32 45.32 -77 46 C-80.23306319 56.95649194 -79.95305866 68.97160191 -77 80 C-76.34 80.66 -75.68 81.32 -75 82 C-74.5078125 84.05761719 -74.5078125 84.05761719 -74.125 86.546875 C-73.13788784 91.87651548 -71.36501734 96.39299479 -69 101.25 C-68.60699707 102.06702393 -68.21399414 102.88404785 -67.80908203 103.72583008 C-62.41973575 114.58843244 -55.29134696 124.15955721 -47 133 C-44.525 132.01 -44.525 132.01 -42 131 C-40.27342813 132.72657187 -38.54729314 134.4535292 -36.82421875 136.18359375 C-35.42260799 137.5792019 -33.9974215 138.95116422 -32.5625 140.3125 C-31 142 -31 142 -31 144 C-29.68 144.66 -28.36 145.32 -27 146 C-27 146.66 -27 147.32 -27 148 C-26.40316406 148.26683594 -25.80632812 148.53367188 -25.19140625 148.80859375 C-22.95425676 150.02486932 -21.65579933 151.20357259 -19.9375 153.0625 C-14.73352275 158.43470927 -8.81780739 162.9793976 -2.9609375 167.61328125 C-1.60665369 168.70120118 -0.29641944 169.84373401 1 171 C1 171.66 1 172.32 1 173 C1.59312988 173.27473145 2.18625977 173.54946289 2.79736328 173.83251953 C4.90414198 174.94919164 6.46376668 176.10557045 8.2421875 177.6796875 C9.12970703 178.45505859 9.12970703 178.45505859 10.03515625 179.24609375 C10.94587891 180.05240234 10.94587891 180.05240234 11.875 180.875 C16.89376368 185.31850545 16.89376368 185.31850545 22.3203125 189.23828125 C25 191 25 191 27 193.3125 C28.92350823 195.32358328 28.92350823 195.32358328 31.81640625 194.8671875 C35.54727753 193.85092563 37.17469523 192.4857487 39.9375 189.8125 C40.79859375 188.9978125 41.6596875 188.183125 42.546875 187.34375 C43.35640625 186.5703125 44.1659375 185.796875 45 185 C46.76105246 183.45027383 48.54509092 181.93297403 50.3359375 180.41796875 C51.53994415 179.39201942 52.73111805 178.35094622 53.9140625 177.30078125 C54.54054687 176.74777344 55.16703125 176.19476563 55.8125 175.625 C56.37582031 175.12226563 56.93914062 174.61953125 57.51953125 174.1015625 C59 173 59 173 61 173 C61 172.34 61 171.68 61 171 C65.47058824 167 65.47058824 167 68 167 C68 166.34 68 165.68 68 165 C69.59334239 163.56450274 71.25251082 162.20172673 72.9375 160.875 C81.81725763 153.76662259 90.15933548 146.41498365 97.5078125 137.71484375 C99.56232357 135.35376951 101.75469885 133.17926289 104 131 C106 132 108 133 110 134 C110.3403125 133.20916016 110.3403125 133.20916016 110.6875 132.40234375 C112.78604659 128.56125401 115.62913365 125.26433265 118.3671875 121.86523438 C120.86016381 118.70475997 122.73877271 115.83384432 124 112 C124.66 112 125.32 112 126 112 C126.25007812 111.33742188 126.50015625 110.67484375 126.7578125 109.9921875 C127.70630297 107.70745888 128.70371257 105.53015062 129.8046875 103.3203125 C139.28739406 84.19727308 145.09423847 63.24376862 138.25390625 42.24609375 C133.21365282 29.19796104 125.20971433 18.98642499 113 12 C112.08347656 11.43345703 112.08347656 11.43345703 111.1484375 10.85546875 C97.27671065 2.97514733 82.03220242 4.05387782 67.30859375 8.02734375 C64.15653932 8.84806789 64.15653932 8.84806789 62 10 C61.23777699 11.98350985 61.23777699 11.98350985 60.625 14.3125 C59.4015664 18.14105589 58.42435353 20.65187187 55 23 C52.0625 24.0625 52.0625 24.0625 49 24 C44.58281981 20.73970034 41.66743007 16.20948568 40 11 C40.0625 7.125 40.0625 7.125 41 4 C45.38626853 1.07582098 48.8667654 0.74731237 53.9375 1.75 C59.83984856 2.57171915 64.92243985 0.26390622 70.3515625 -1.7734375 C84.85248919 -6.64848138 101.36264187 -3.2006719 115 3 C118.45716427 4.81244866 121.88626398 6.63599218 125 9 C125 9.66 125 10.32 125 11 C125.53625 11.20625 126.0725 11.4125 126.625 11.625 C129.91978009 13.53250426 132.59363628 16.04819384 135 19 C135 19.66 135 20.32 135 21 C135.66 21 136.32 21 137 21 C149.29255884 42.69584102 153.10128676 60.68122857 146.54296875 84.921875 C141.63442649 101.73134662 132.59110159 120.72367595 120 133 C116.98451902 136.09152889 116.98451902 136.09152889 116 140 C116.66 140.33 117.32 140.66 118 141 C117.52299344 145.29305904 115.00756364 147.09338955 112 150 C111.1028125 150.8971875 110.205625 151.794375 109.28125 152.71875 C106.52083333 155.47916667 103.76041667 158.23958333 101 161 C100.10925781 161.91136719 99.21851563 162.82273438 98.30078125 163.76171875 C96.23120789 165.7750728 94.64636905 166.92184965 92 168 C92 168.66 92 169.32 92 170 C91.34 170 90.68 170 90 170 C90 170.66 90 171.32 90 172 C88.42713316 173.41438406 86.78860004 174.75604401 85.125 176.0625 C79.55787374 180.51477171 74.2684805 185.20176404 69 190 C67.50504441 191.35973348 66.00544081 192.71438453 64.5 194.0625 C63.55640625 194.91521484 63.55640625 194.91521484 62.59375 195.78515625 C61 197 61 197 59 197 C58.80277344 197.54398438 58.60554687 198.08796875 58.40234375 198.6484375 C56.38654532 202.02869003 53.58638602 204.15301449 50.5625 206.625 C49.97662109 207.11484375 49.39074219 207.6046875 48.78710938 208.109375 C46.25856149 210.21027971 43.73731556 212.17512296 41 214 C40.48815355 217.00414569 40.48815355 217.00414569 40.48828125 220.5390625 C40.43510742 222.49199219 40.43510742 222.49199219 40.38085938 224.484375 C40.35775769 225.86457809 40.33497536 227.24478657 40.3125 228.625 C40.27933555 230.01305352 40.2448467 231.40107607 40.20898438 232.7890625 C40.12625885 236.19262707 40.05718743 239.5959259 40 243 C38.68 243.33 37.36 243.66 36 244 C38.64926144 267.25075503 47.7439134 288.61781009 66 304 C82.04549936 316.05281686 99.11076111 321.59418567 119.1875 321.4375 C119.86942413 321.43412628 120.55134827 321.43075256 121.25393677 321.42727661 C148.26459894 321.23387719 172.850678 311.38826185 192 292 C193.92663684 289.84733314 195.8054907 287.67736363 197.625 285.43359375 C198.305625 284.72396484 198.305625 284.72396484 199 284 C199.66 284 200.32 284 201 284 C201.25136719 283.46503906 201.50273437 282.93007813 201.76171875 282.37890625 C203.28468932 279.45307319 205.04337609 276.72141774 206.8125 273.9375 C216.87282423 257.73260091 221.82496188 240.91633343 223 222 C223.0721875 220.85273438 223.144375 219.70546875 223.21875 218.5234375 C223.91129681 194.34201141 217.55482966 163.43311158 202 144 C200.093755 142.61123807 200.093755 142.61123807 198 142 C197.01 142.33 196.02 142.66 195 143 C187.46481779 143.69015933 180.27564155 143.64770285 174 139 C168.55318725 132.93236773 165.66234319 126.26571461 166.0625 118.0625 C166.87484355 111.70881292 169.95739863 107.6060776 173.8125 102.6875 C180.12097631 97.82096113 187.27875338 97.00807343 195 98 C201.2182467 99.79804724 205.50111125 103.63721724 209 109 C211.85325926 114.46964416 213.24463801 119.9945286 211.35546875 126.07421875 C210.84750059 127.4279664 210.3156094 128.77311973 209.75390625 130.10546875 C209.38072266 131.04326172 209.38072266 131.04326172 209 132 C208.59587891 132.928125 208.59587891 132.928125 208.18359375 133.875 C207.89203324 137.24965781 209.63955667 139.05307379 211.5 141.8125 C230.0386558 170.34043149 237.29034227 207.22586164 230.51220703 240.60498047 C226.40420116 259.81353031 218.7442732 274.37316279 207 290 C206.38125 290.86753906 205.7625 291.73507812 205.125 292.62890625 C201.08500798 298.15583978 196.53347007 302.01435372 191 306 C190.38640625 306.48984375 189.7728125 306.9796875 189.140625 307.484375 C183.87204142 311.67222348 178.13150357 314.8996295 172.26953125 318.16796875 C170.3106745 319.26558382 168.36845547 320.39508024 166.46484375 321.5859375 C146.07289884 333.28464441 117.73651707 334.34351219 95.359375 328.9296875 C70.774051 322.12584202 50.82437518 307.15240922 38.125 284.8125 C30.65054607 271.60388357 27.64954633 258.14114896 27 243 C25.35 242.67 23.7 242.34 22 242 C22.04302246 241.21463867 22.08604492 240.42927734 22.13037109 239.62011719 C23.5442821 223.70494963 23.5442821 223.70494963 17.95703125 209.57421875 C14.61065316 206.50233783 10.94443057 204.23142072 7 202 C4.55078125 200.34765625 4.55078125 200.34765625 3 199 C3 198.34 3 197.68 3 197 C2.443125 196.95875 1.88625 196.9175 1.3125 196.875 C-1.50069157 195.81054913 -2.51863306 194.2004602 -4.32421875 191.875 C-8.03185285 187.72659821 -12.66132354 184.45980049 -17 181 C-19.40290256 179.05203596 -21.71157527 177.0850092 -24 175 C-24 174.34 -24 173.68 -24 173 C-24.5775 172.938125 -25.155 172.87625 -25.75 172.8125 C-28.91500782 171.66958051 -29.92423528 169.65236603 -32 167 C-33.20834858 165.89349401 -34.44002839 164.81220355 -35.6875 163.75 C-40.37745243 159.74381634 -44.67786981 155.39524894 -49 151 C-49.70898438 150.30261719 -50.41796875 149.60523438 -51.1484375 148.88671875 C-53.28410301 146.71050263 -54.74596324 144.78674836 -56 142 C-55.0703125 139.84375 -55.0703125 139.84375 -54 138 C-54.60585937 137.319375 -55.21171875 136.63875 -55.8359375 135.9375 C-76.55740765 111.96435299 -88.51082036 84.69067779 -87.22216797 52.74707031 C-86.15197631 39.5143269 -79.63078002 25.02423319 -70 16 C-69.30519531 15.33097656 -68.61039063 14.66195312 -67.89453125 13.97265625 C-57.55358656 4.48537304 -47.35688276 0.48500787 -34 -3 C-33.32735107 -3.18030762 -32.65470215 -3.36061523 -31.96166992 -3.54638672 C-21.32802511 -6.00529301 -10.06212641 -3.5346444 0 0 Z M179 113 C176.47518846 116.48664451 176.56525978 119.79751118 177 124 C179.50370383 128.57573458 181.62417939 131.298053 186.75 132.8125 C190.98318574 133.05672225 193.31000645 132.04999642 197 130 C200.31537959 127.02465934 200.93423584 125.5178928 201.5 121.0625 C201.28421111 116.83463627 199.71579568 114.25895481 197 111 C191.12826994 107.08551329 183.76877914 107.63512346 179 113 Z " fill="#19191A" transform="translate(150,52)"/>
<path d="M0 0 C0.99 0.66 1.98 1.32 3 2 C6.53552903 2.06080762 10.02420582 1.86708037 13.5546875 1.6796875 C17.65823023 2.06119601 19.21791449 3.00228972 22 6 C22.31249029 12.24980577 20.30379606 15.62348947 16.47265625 20.43359375 C14.14765932 22.9066011 13.03550159 22.99741807 9.5625 23.25 C6 23 6 23 4.3671875 21.765625 C2.33162051 19.13683563 1.78268841 16.33089966 0.94140625 13.15625 C-0.27074059 10.37988046 -1.37420596 9.50362193 -4 8 C-19.11576056 3.32085374 -33.7985705 4.09769572 -48.2578125 10.42578125 C-59.49494608 16.35053697 -68.96195931 25.13828394 -74 37 C-74.4054103 39.32189536 -74.76072994 41.65515344 -75 44 C-75.66 44.66 -76.32 45.32 -77 46 C-80.23306319 56.95649194 -79.95305866 68.97160191 -77 80 C-76.34 80.66 -75.68 81.32 -75 82 C-74.5078125 84.05761719 -74.5078125 84.05761719 -74.125 86.546875 C-73.13788784 91.87651548 -71.36501734 96.39299479 -69 101.25 C-68.60699707 102.06702393 -68.21399414 102.88404785 -67.80908203 103.72583008 C-62.41973575 114.58843244 -55.29134696 124.15955721 -47 133 C-44.525 132.01 -44.525 132.01 -42 131 C-40.02 133.475 -40.02 133.475 -38 136 C-38.66 136 -39.32 136 -40 136 C-39.67 136.99 -39.34 137.98 -39 139 C-40.98 139.99 -42.96 140.98 -45 142 C-43.49089988 145.54120058 -41.42880686 147.81604365 -38.7109375 150.51953125 C-37.85113281 151.37740234 -36.99132812 152.23527344 -36.10546875 153.11914062 C-35.20441406 154.00794922 -34.30335937 154.89675781 -33.375 155.8125 C-32.49714844 156.68970703 -31.61929688 157.56691406 -30.71484375 158.47070312 C-25.63461993 163.51695813 -20.43174189 168.3372654 -15 173 C-13.39231627 174.45445517 -11.78760285 175.91220895 -10.1875 177.375 C-5.7550648 181.37782994 -1.18088526 185.17223692 3.45703125 188.93359375 C11.74528302 195.66859404 11.74528302 195.66859404 15.30078125 199.44140625 C17.89321826 202.10487735 17.89321826 202.10487735 21.11328125 203.76171875 C24.96461939 206.08004562 27.909326 207.93681649 30 212 C31.55192003 220.53070609 30.73426891 229.40905378 30 238 C28.68 238 27.36 238 26 238 C26 229.42 26 220.84 26 212 C25.01 212 24.02 212 23 212 C23 221.9 23 231.8 23 242 C22.67 242 22.34 242 22 242 C22.04302246 241.21463867 22.08604492 240.42927734 22.13037109 239.62011719 C23.5442821 223.70494963 23.5442821 223.70494963 17.95703125 209.57421875 C14.61065316 206.50233783 10.94443057 204.23142072 7 202 C4.55078125 200.34765625 4.55078125 200.34765625 3 199 C3 198.34 3 197.68 3 197 C2.443125 196.95875 1.88625 196.9175 1.3125 196.875 C-1.50069157 195.81054913 -2.51863306 194.2004602 -4.32421875 191.875 C-8.03185285 187.72659821 -12.66132354 184.45980049 -17 181 C-19.40290256 179.05203596 -21.71157527 177.0850092 -24 175 C-24 174.34 -24 173.68 -24 173 C-24.5775 172.938125 -25.155 172.87625 -25.75 172.8125 C-28.91500782 171.66958051 -29.92423528 169.65236603 -32 167 C-33.20834858 165.89349401 -34.44002839 164.81220355 -35.6875 163.75 C-40.37745243 159.74381634 -44.67786981 155.39524894 -49 151 C-49.70898438 150.30261719 -50.41796875 149.60523438 -51.1484375 148.88671875 C-53.28410301 146.71050263 -54.74596324 144.78674836 -56 142 C-55.0703125 139.84375 -55.0703125 139.84375 -54 138 C-54.60585937 137.319375 -55.21171875 136.63875 -55.8359375 135.9375 C-76.55740765 111.96435299 -88.51082036 84.69067779 -87.22216797 52.74707031 C-86.15197631 39.5143269 -79.63078002 25.02423319 -70 16 C-69.30519531 15.33097656 -68.61039063 14.66195312 -67.89453125 13.97265625 C-57.55358656 4.48537304 -47.35688276 0.48500787 -34 -3 C-33.32735107 -3.18030762 -32.65470215 -3.36061523 -31.96166992 -3.54638672 C-21.32802511 -6.00529301 -10.06212641 -3.5346444 0 0 Z " fill="#202020" transform="translate(150,52)"/>
<path d="M0 0 C2.31 0 4.62 0 7 0 C7.12375 0.639375 7.2475 1.27875 7.375 1.9375 C7.58125 2.618125 7.7875 3.29875 8 4 C8.66 4.33 9.32 4.66 10 5 C9.34 5 8.68 5 8 5 C8 6.65 8 8.3 8 10 C9.98 10 11.96 10 14 10 C14.38218767 11.65614657 14.71395102 13.32457024 15 15 C14.67 15.33 14.34 15.66 14 16 C12.02 16 10.04 16 8 16 C8 20.29 8 24.58 8 29 C13.67954979 28.62155143 13.67954979 28.62155143 15.87109375 26.25390625 C17.21621209 23.56832395 17.24681303 21.91797655 17.0625 18.9375 C16.79129233 14.31306151 16.79129233 14.31306151 19 11 C23.72196607 9.43521592 29.00512305 9.70403299 33.9375 9.625 C34.81857422 9.58761719 35.69964844 9.55023438 36.60742188 9.51171875 C40.78033652 9.45545473 44.08976144 9.54453878 47.5859375 11.98828125 C50.76571723 15.955288 50.7934699 18.6243028 50.6875 23.5625 C50.52614207 29.28068357 50.52614207 29.28068357 52.51953125 34.52734375 C53.25236328 35.25630859 53.25236328 35.25630859 54 36 C53.25390625 37.9453125 53.25390625 37.9453125 52 40 C46.65874198 41.96486024 41.06996099 40.85276694 35.75 39.375 C34.88375 39.189375 34.88375 39.189375 34 39 C33.67 39.33 33.34 39.66 33 40 C31.08759516 40.15252309 29.16827201 40.22192773 27.25 40.25 C26.20328125 40.27578125 25.1565625 40.3015625 24.078125 40.328125 C20.65177044 39.96287908 18.79146786 38.96436627 16 37 C15.34 37.99 14.68 38.98 14 40 C12.06054688 40.35644531 12.06054688 40.35644531 9.71875 40.328125 C8.87699219 40.32296875 8.03523438 40.3178125 7.16796875 40.3125 C6.28753906 40.291875 5.40710938 40.27125 4.5 40.25 C3.61957031 40.24484375 2.73914063 40.2396875 1.83203125 40.234375 C-4.69108124 40.15445938 -4.69108124 40.15445938 -7 39 C-9.74726238 31.48117665 -8.90298177 23.78516716 -8 16 C-9.32 15.67 -10.64 15.34 -12 15 C-11.9375 12.6875 -11.9375 12.6875 -11 10 C-7.4375 8.1875 -7.4375 8.1875 -4 7 C-4 6.01 -4 5.02 -4 4 C-3.34 4 -2.68 4 -2 4 C-1.34 2.68 -0.68 1.36 0 0 Z M30 16 C28.29467677 17.94009522 28.29467677 17.94009522 27 20 C29.31 20 31.62 20 34 20 C33.67 18.68 33.34 17.36 33 16 C32.01 16 31.02 16 30 16 Z M19 20 C19.33 20.99 19.66 21.98 20 23 C21.98 22.34 23.96 21.68 26 21 C26 20.67 26 20.34 26 20 C23.69 20 21.38 20 19 20 Z M31 26 C29.5393715 28.64738916 29 29.89448334 29 33 C29.99 33.33 30.98 33.66 32 34 C33.76462683 30.91190305 34 29.76687864 34 26 C33.01 26 32.02 26 31 26 Z M8 30 C8 30.99 8 31.98 8 33 C10.31 33.66 12.62 34.32 15 35 C14.67 33.35 14.34 31.7 14 30 C12.02 30 10.04 30 8 30 Z " fill="#1B1B1B" transform="translate(206,420)"/>
<path d="M0 0 C7.92 0 15.84 0 24 0 C24 5.625 24 5.625 21 9 C21.66 9.33 22.32 9.66 23 10 C23.34022786 11.99883869 23.67329097 13.99890722 24 16 C24.66 16.66 25.32 17.32 26 18 C26.48754815 19.98269583 26.9725004 21.96622176 27.42578125 23.95703125 C28.17344943 26.61710239 29.44179023 28.73351306 31 31 C34.18123795 25.7345027 35.73589504 20.6679866 36.9375 14.6875 C37.16626831 13.62885742 37.16626831 13.62885742 37.3996582 12.54882812 C37.86240367 10.27969624 37.86240367 10.27969624 38 7 C36.58070847 5.26732316 36.58070847 5.26732316 35 4 C35.33 2.68 35.66 1.36 36 0 C40.95 0 45.9 0 51 0 C51.495 1.485 51.495 1.485 52 3 C52.39316406 2.5153125 52.78632813 2.030625 53.19140625 1.53125 C56.11611634 -0.94496243 58.91843318 -0.53124146 62.61328125 -0.41796875 C65 0 65 0 67.625 2.1875 C69.09830683 5.20108214 69.69140883 6.71580805 69 10 C66.08125653 12.75328182 64.03848498 13.41175795 60.0625 13.375 C55.95837447 13.24182779 53.14982946 12.84500725 50 10 C49.1875 7.8125 49.1875 7.8125 49 6 C49 6.99 49 7.98 49 9 C48.34 9.33 47.68 9.66 47 10 C46.33363686 12.2342343 46.33363686 12.2342343 45.8125 15 C44.51493978 20.52125112 42.7117296 25.6426866 40.5625 30.875 C40.12997925 31.94427734 40.12997925 31.94427734 39.6887207 33.03515625 C35.21988802 43.70132057 35.21988802 43.70132057 31.0703125 46.12890625 C27.3828997 46.95079946 25.43168829 47.14112887 21.75 45.9375 C11.63039183 38.80777607 8.30893015 24.61516657 5.09228516 13.27294922 C4.86202637 12.48807129 4.63176758 11.70319336 4.39453125 10.89453125 C4.19706299 10.19175049 3.99959473 9.48896973 3.79614258 8.76489258 C3.02139679 6.63122645 3.02139679 6.63122645 0 5 C0 3.35 0 1.7 0 0 Z " fill="#181818" transform="translate(124,415)"/>
<path d="M0 0 C-0.33 0.5775 -0.66 1.155 -1 1.75 C-2.27075898 4.19883862 -2.27075898 4.19883862 -2 8 C-0.17914849 10.39204729 -0.17914849 10.39204729 2.3125 12.73828125 C3.67955078 14.09276367 3.67955078 14.09276367 5.07421875 15.47460938 C6.0494417 16.42061155 7.02470234 17.36657486 8 18.3125 C8.93457031 19.23740234 9.86914062 20.16230469 10.83203125 21.11523438 C16.06918281 26.26815203 21.42873016 31.21326903 27 36 C28.60768373 37.45445517 30.21239715 38.91220895 31.8125 40.375 C36.2449352 44.37782994 40.81911474 48.17223692 45.45703125 51.93359375 C53.74528302 58.66859404 53.74528302 58.66859404 57.30078125 62.44140625 C59.89321826 65.10487735 59.89321826 65.10487735 63.11328125 66.76171875 C66.96461939 69.08004562 69.909326 70.93681649 72 75 C73.55192003 83.53070609 72.73426891 92.40905378 72 101 C70.68 101 69.36 101 68 101 C68 92.42 68 83.84 68 75 C67.01 75 66.02 75 65 75 C65 84.9 65 94.8 65 105 C64.67 105 64.34 105 64 105 C64.04302246 104.21463867 64.08604492 103.42927734 64.13037109 102.62011719 C65.5442821 86.70494963 65.5442821 86.70494963 59.95703125 72.57421875 C56.61065316 69.50233783 52.94443057 67.23142072 49 65 C46.55078125 63.34765625 46.55078125 63.34765625 45 62 C45 61.34 45 60.68 45 60 C44.443125 59.95875 43.88625 59.9175 43.3125 59.875 C40.49930843 58.81054913 39.48136694 57.2004602 37.67578125 54.875 C33.96814715 50.72659821 29.33867646 47.45980049 25 44 C22.59709744 42.05203596 20.28842473 40.0850092 18 38 C18 37.34 18 36.68 18 36 C17.13375 35.9071875 17.13375 35.9071875 16.25 35.8125 C13.08499218 34.66958051 12.07576472 32.65236603 10 30 C8.79165142 28.89349401 7.55997161 27.81220355 6.3125 26.75 C2.27833195 23.3137668 -1.42334381 19.61712048 -5.1171875 15.8203125 C-6.87753339 13.93616102 -6.87753339 13.93616102 -9 13 C-9 11.68 -9 10.36 -9 9 C-8.34 8.67 -7.68 8.34 -7 8 C-7 6.68 -7 5.36 -7 4 C-3.77777778 0 -3.77777778 0 0 0 Z " fill="#252528" transform="translate(108,189)"/>
<path d="M0 0 C2.31 0 4.62 0 7 0 C7.12375 0.639375 7.2475 1.27875 7.375 1.9375 C7.58125 2.618125 7.7875 3.29875 8 4 C8.66 4.33 9.32 4.66 10 5 C9.34 5 8.68 5 8 5 C8 6.65 8 8.3 8 10 C9.98 10 11.96 10 14 10 C14.38218767 11.65614657 14.71395102 13.32457024 15 15 C14.67 15.33 14.34 15.66 14 16 C11.69 16 9.38 16 7 16 C7.495 23.92 7.495 23.92 8 32 C9.98 32.66 11.96 33.32 14 34 C14 35.98 14 37.96 14 40 C10.87501937 40.02895976 7.7500731 40.04678483 4.625 40.0625 C3.73554688 40.07087891 2.84609375 40.07925781 1.9296875 40.08789062 C0.65351563 40.09272461 0.65351563 40.09272461 -0.6484375 40.09765625 C-1.82672119 40.10551147 -1.82672119 40.10551147 -3.02880859 40.11352539 C-5 40 -5 40 -7 39 C-9.74726238 31.48117665 -8.90298177 23.78516716 -8 16 C-9.32 15.67 -10.64 15.34 -12 15 C-11.9375 12.6875 -11.9375 12.6875 -11 10 C-7.4375 8.1875 -7.4375 8.1875 -4 7 C-4 6.01 -4 5.02 -4 4 C-3.34 4 -2.68 4 -2 4 C-1.34 2.68 -0.68 1.36 0 0 Z " fill="#141414" transform="translate(206,420)"/>
<path d="M0 0 C5.64836898 4.19911641 9.15216005 9.48204096 10.78125 16.32421875 C11.40055937 22.10443953 10.11551969 26.11700176 7.78125 31.32421875 C6.79125 31.81921875 6.79125 31.81921875 5.78125 32.32421875 C5.12125 31.66421875 4.46125 31.00421875 3.78125 30.32421875 C3.12125 31.12859375 2.46125 31.93296875 1.78125 32.76171875 C-2.09854228 36.07570799 -4.21889825 36.069989 -9.21875 36.32421875 C-7.25636331 35.01596095 -5.25596846 33.76259619 -3.21875 32.57421875 C0.70903217 29.62838212 2.37344486 27.08319675 3.09765625 22.18359375 C3.40238347 16.40360656 2.21745211 12.96773512 -1.21875 8.32421875 C-3.66594649 6.48882138 -5.51643519 5.49979745 -8.46875 4.76171875 C-9.04625 4.61734375 -9.62375 4.47296875 -10.21875 4.32421875 C-10.54875 3.66421875 -10.87875 3.00421875 -11.21875 2.32421875 C-17.52259954 4.4611169 -22.17715019 6.29701904 -26.03125 12.01171875 C-27.77180017 16.86693764 -28.17614071 21.30753483 -26.59765625 26.28125 C-24.08919005 31.39852104 -20.07969978 33.65918058 -15.21875 36.32421875 C-14.22875 36.98421875 -13.23875 37.64421875 -12.21875 38.32421875 C-18.6324232 38.20968887 -21.86339432 36.7307989 -26.51953125 32.3125 C-28.94431272 29.47522697 -30.06459268 26.85882553 -31.21875 23.32421875 C-32.20875 23.65421875 -33.19875 23.98421875 -34.21875 24.32421875 C-36.09355082 20.57461712 -35.07486728 16.30778487 -34.21875 12.32421875 C-31.44760428 6.22147088 -27.70092811 1.54353431 -21.65625 -1.42578125 C-14.40433334 -3.8700958 -6.69786846 -3.91166498 0 0 Z " fill="#242427" transform="translate(351.21875,152.67578125)"/>
<path d="M0 0 C1.1482685 2.296537 1.11561175 3.58313167 1.09765625 6.1328125 C1.09443359 6.93847656 1.09121094 7.74414062 1.08789062 8.57421875 C1.07951172 9.41597656 1.07113281 10.25773437 1.0625 11.125 C1.05798828 11.97449219 1.05347656 12.82398438 1.04882812 13.69921875 C1.03702874 15.79950909 1.01909306 17.8997633 1 20 C1.66 20.33 2.32 20.66 3 21 C2.34 21 1.68 21 1 21 C1.4640625 22.0828125 1.4640625 22.0828125 1.9375 23.1875 C2.92743907 25.80792695 3.48799991 28.25549499 4 31 C0.54254978 31.22527296 -2.91587025 31.42733544 -6.375 31.625 C-7.85226563 31.72167969 -7.85226563 31.72167969 -9.359375 31.8203125 C-10.30039063 31.871875 -11.24140625 31.9234375 -12.2109375 31.9765625 C-13.08024902 32.02893066 -13.94956055 32.08129883 -14.84521484 32.13525391 C-17 32 -17 32 -19 30 C-18.60467975 27.54901444 -17.78698574 25.36095721 -17 23 C-16.34 23 -15.68 23 -15 23 C-15 22.34 -15 21.68 -15 21 C-15.66 20.67 -16.32 20.34 -17 20 C-16.773125 18.948125 -16.54625 17.89625 -16.3125 16.8125 C-15.95825882 12.49075755 -16.72867753 11.50162213 -19 8 C-18.72688465 4.90469271 -17.7770843 3.66562645 -16 1 C-16 1.66 -16 2.32 -16 3 C-15.26394531 2.7834375 -14.52789062 2.566875 -13.76953125 2.34375 C-12.79371094 2.0653125 -11.81789062 1.786875 -10.8125 1.5 C-9.84957031 1.2215625 -8.88664063 0.943125 -7.89453125 0.65625 C-5.14654124 0.03322392 -2.80401584 -0.12302812 0 0 Z " fill="#161616" transform="translate(191,429)"/>
<path d="M0 0 C-0.33 0.5775 -0.66 1.155 -1 1.75 C-2.27075898 4.19883862 -2.27075898 4.19883862 -2 8 C-0.17914849 10.39204729 -0.17914849 10.39204729 2.3125 12.73828125 C3.67955078 14.09276367 3.67955078 14.09276367 5.07421875 15.47460938 C6.0494417 16.42061155 7.02470234 17.36657486 8 18.3125 C8.93457031 19.23740234 9.86914062 20.16230469 10.83203125 21.11523438 C16.06918281 26.26815203 21.42873016 31.21326903 27 36 C28.60768373 37.45445517 30.21239715 38.91220895 31.8125 40.375 C36.2449352 44.37782994 40.81911474 48.17223692 45.45703125 51.93359375 C53.74528302 58.66859404 53.74528302 58.66859404 57.30078125 62.44140625 C59.89321826 65.10487735 59.89321826 65.10487735 63.11328125 66.76171875 C66.96461939 69.08004562 69.909326 70.93681649 72 75 C73.55192003 83.53070609 72.73426891 92.40905378 72 101 C70.68 101 69.36 101 68 101 C68.08024414 99.92069214 68.08024414 99.92069214 68.16210938 98.81958008 C69.38324304 85.20080394 69.38324304 85.20080394 65.46289062 72.57324219 C61.77313585 68.68602348 57.47116096 65.90226599 52.87646484 63.19384766 C50.19084607 61.48519871 48.16256236 59.32017283 46 57 C40.7834693 52.09223592 35.48020825 47.33524193 29.875 42.875 C24.02917869 38.16469794 18.61642635 33.03002556 13.18896484 27.84716797 C9.76436554 24.58046598 6.31443526 21.37708387 2.73046875 18.28515625 C-0.06409934 15.86303705 -2.61265175 13.39747605 -5 10.5625 C-5.5775 9.88316406 -6.155 9.20382813 -6.75 8.50390625 C-7.1625 8.00761719 -7.575 7.51132813 -8 7 C-4.63016529 0 -4.63016529 0 0 0 Z " fill="#8C899C" transform="translate(108,189)"/>
<path d="M0 0 C0.99 0.495 0.99 0.495 2 1 C0.7041647 4.78279194 -0.74678943 7.11145918 -3.625 9.875 C-4.34558594 10.56851563 -5.06617188 11.26203125 -5.80859375 11.9765625 C-8.38494168 14.35543635 -11.00938093 16.66684435 -13.66796875 18.953125 C-16.66270913 21.58167435 -19.57954296 24.28948596 -22.5 27 C-30.88939812 34.7706934 -39.54405093 42.19827903 -48.29345703 49.55957031 C-50.01208971 51.01020448 -51.72326323 52.46927946 -53.43359375 53.9296875 C-54.51807902 54.84913546 -55.60270873 55.76841309 -56.6875 56.6875 C-57.66074219 57.51636719 -58.63398438 58.34523437 -59.63671875 59.19921875 C-62 61 -62 61 -64 61 C-64.268125 61.598125 -64.53625 62.19625 -64.8125 62.8125 C-66.00987475 65.01819033 -67.04478984 66.43583187 -69 68 C-69.99 68 -70.98 68 -72 68 C-68.41307039 59.19571824 -57.77370021 52.40523475 -50.625 46.625 C-45.77649722 42.6919488 -41.15006978 38.56421075 -36.5546875 34.33984375 C-34.37302185 32.34165152 -32.16988691 30.37851111 -29.9375 28.4375 C-29.29683594 27.87804687 -28.65617187 27.31859375 -27.99609375 26.7421875 C-26.61515795 25.5369089 -25.23221076 24.33393239 -23.84765625 23.1328125 C-15.53090399 15.79857174 -7.7903364 7.88470313 0 0 Z " fill="#8C8A9B" transform="translate(255,188)"/>
<path d="M0 0 C-0.33 0.66 -0.66 1.32 -1 2 C0.3303125 2.12375 0.3303125 2.12375 1.6875 2.25 C6.63248335 3.36961887 9.0066027 5.52703159 11.8125 9.6875 C13.31153079 13.86900695 13.45780505 17.59802838 13 22 C11.61349567 24.77300866 9.65746752 25.45496074 7 27 C5.65368175 27.98244845 4.31558703 28.97676564 3 30 C2.67 29.34 2.34 28.68 2 28 C4 26 6 24 8 22 C8.35536226 16.66956605 8.44866826 13.34276744 5 9 C0.75370427 6.16913618 -3.0161657 6.23692489 -8 7 C-11.70931426 9.4981096 -12.74534451 11.08324024 -13.9375 15.375 C-14.00789451 19.45788159 -13.32891203 22.1696065 -12 26 C-12.99 26.99 -13.98 27.98 -15 29 C-18.14904663 24.37483776 -19.74006123 20.92470784 -19.44140625 15.26953125 C-18.47057048 10.27788891 -15.9793528 6.57956273 -12.02734375 3.42578125 C-3.83576642 -1.91788321 -3.83576642 -1.91788321 0 0 Z " fill="#1E1D21" transform="translate(342,155)"/>
<path d="M0 0 C0.66 0 1.32 0 2 0 C2.33 0.99 2.66 1.98 3 3 C3.39316406 2.5153125 3.78632813 2.030625 4.19140625 1.53125 C7.11611634 -0.94496243 9.91843318 -0.53124146 13.61328125 -0.41796875 C16 0 16 0 18.625 2.1875 C20.09830683 5.20108214 20.69140883 6.71580805 20 10 C17.08125653 12.75328182 15.03848498 13.41175795 11.0625 13.375 C8.11195436 13.25314856 5.79247577 12.94070736 2.9375 12.125 C-0.21117707 8.67161224 0.09336412 4.52391616 0 0 Z " fill="#232323" transform="translate(173,415)"/>
<path d="M0 0 C3.56917061 1.5414201 6.08217769 3.69475459 8.9375 6.3125 C9.77152344 7.07175781 10.60554687 7.83101562 11.46484375 8.61328125 C13.13144113 10.18229665 14.76476816 11.78755926 16.359375 13.4296875 C19.49907721 16.48578817 22.8469977 19.13931645 26.3125 21.8125 C26.95767578 22.31458984 27.60285156 22.81667969 28.26757812 23.33398438 C29.84267125 24.55905681 31.42100316 25.7799632 33 27 C32.01 27.495 32.01 27.495 31 28 C31 37.9 31 47.8 31 58 C30.67 58 30.34 58 30 58 C30.04302246 57.21463867 30.08604492 56.42927734 30.13037109 55.62011719 C31.5442821 39.70494963 31.5442821 39.70494963 25.95703125 25.57421875 C22.61065316 22.50233783 18.94443057 20.23142072 15 18 C12.55078125 16.34765625 12.55078125 16.34765625 11 15 C11 14.34 11 13.68 11 13 C10.41734375 12.92523438 9.8346875 12.85046875 9.234375 12.7734375 C6.22198461 11.73068698 5.16006094 10.14725996 3.25 7.625 C2.63640625 6.83351562 2.0228125 6.04203125 1.390625 5.2265625 C0 3 0 3 0 0 Z " fill="#242428" transform="translate(142,236)"/>
<path d="M0 0 C1.33692841 0.83106361 2.65930319 1.68903677 3.93359375 2.61328125 C6.0619608 4.11463942 6.0619608 4.11463942 8.84765625 5.35546875 C12.44258217 7.45676093 15.18677365 9.21771612 17 13 C18.42829503 21.54862073 17.669001 30.40029625 17 39 C15.68 39 14.36 39 13 39 C13.02731201 38.25951416 13.05462402 37.51902832 13.08276367 36.75610352 C14.340982 22.27131256 14.340982 22.27131256 9.51953125 9.41015625 C6.59147486 7.0823469 6.59147486 7.0823469 3.46875 5.4453125 C1 4 1 4 0.15625 1.8046875 C0.1046875 1.20914063 0.053125 0.61359375 0 0 Z " fill="#8E8B9E" transform="translate(163,251)"/>
<path d="M0 0 C0 0.99 0 1.98 0 3 C-2.19119502 5.15578177 -4.54836393 7.02754441 -6.93359375 8.96484375 C-9.12722131 10.7570662 -9.12722131 10.7570662 -9.42578125 12.91015625 C-10.3675588 16.33771399 -13.15710617 18.23430468 -15.75 20.5 C-16.2759375 20.97308594 -16.801875 21.44617188 -17.34375 21.93359375 C-26.57170653 30.17936679 -26.57170653 30.17936679 -33 31 C-35.28480253 31.97348627 -35.28480253 31.97348627 -37 33 C-33.69094944 29.59067518 -30.24904809 26.46855032 -26.62109375 23.40234375 C-25.36849376 22.3187693 -24.17114054 21.17114054 -23 20 C-21.17561385 18.17561385 -19.3107203 16.45470841 -17.375 14.75 C-16.48941406 13.96882812 -16.48941406 13.96882812 -15.5859375 13.171875 C-14 12 -14 12 -12 12 C-12 11.34 -12 10.68 -12 10 C-7.52941176 6 -7.52941176 6 -5 6 C-5 5.34 -5 4.68 -5 4 C-3.37373596 2.61767557 -1.7074998 1.28062485 0 0 Z " fill="#343438" transform="translate(223,213)"/>
<path d="M0 0 C-0.56589844 0.27328125 -1.13179688 0.5465625 -1.71484375 0.828125 C-6.81238227 3.44224732 -11.63999662 6.14544994 -15.0625 10.8125 C-16.67837255 16.30646666 -17.07805474 21.49076834 -14.5 26.75 C-11.89982675 30.76675509 -8.10598519 32.74887465 -4 35 C-3.01 35.66 -2.02 36.32 -1 37 C-7.52805623 36.88342757 -10.55052822 35.28128783 -15.3359375 30.88671875 C-19.6307496 26.0172487 -19.4253286 21.43711054 -19.3125 15.1328125 C-18.75521325 9.54601284 -15.94722417 6.73725581 -11.9375 3.1875 C-7.79441828 0.10222638 -5.0434443 -0.11207654 0 0 Z " fill="#8D8B98" transform="translate(340,154)"/>
<path d="M0 0 C4.00759294 -0.06234033 7.60517583 -0.08486324 10.86328125 2.44921875 C14.58818183 6.71020925 16.6631314 10.54567165 17.4375 16.1875 C16.83109985 21.47184415 15.00018178 25.61753551 12 30 C8.28422351 32.63200835 5.52326195 33.39911135 1 33 C2.96238669 31.6917422 4.96278154 30.43837744 7 29.25 C10.92778217 26.30416337 12.59219486 23.758978 13.31640625 18.859375 C13.62113347 13.07938781 12.43620211 9.64351637 9 5 C6.59141286 3.1375562 6.59141286 3.1375562 4 2 C2.66570119 1.3352678 1.33220244 0.66892368 0 0 Z " fill="#8B8996" transform="translate(341,156)"/>
<path d="M0 0 C3.70503641 0.60334309 5.85968148 2.22474237 8.75 4.5625 C9.94882813 5.52349609 9.94882813 5.52349609 11.171875 6.50390625 C12.07679688 7.24447266 12.07679688 7.24447266 13 8 C12.01 8.495 12.01 8.495 11 9 C11 18.9 11 28.8 11 39 C10.67 39 10.34 39 10 39 C10.01160156 38.18845459 10.02320313 37.37690918 10.03515625 36.54077148 C10.06475814 32.83868506 10.03293953 29.13953667 10 25.4375 C10.01933594 24.16068359 10.03867188 22.88386719 10.05859375 21.56835938 C10.12214826 14.66569477 10.12214826 14.66569477 7.1875 8.67626953 C5.06304168 6.82853656 5.06304168 6.82853656 2.8125 5.41430664 C0.65052895 3.72730525 0.36581082 2.66606068 0 0 Z " fill="#59585C" transform="translate(162,255)"/>
<path d="M0 0 C0.33 0 0.66 0 1 0 C1 8.58 1 17.16 1 26 C-0.32 26 -1.64 26 -3 26 C-3.054138 23.75026553 -3.09285491 21.50015617 -3.125 19.25 C-3.14820313 17.99703125 -3.17140625 16.7440625 -3.1953125 15.453125 C-3.00909661 12.16082799 -2.57747528 10.77253231 -1 8 C-0.55499715 5.87406942 -0.55499715 5.87406942 -0.375 3.75 C-0.25125 2.5125 -0.1275 1.275 0 0 Z " fill="#928FA8" transform="translate(179,264)"/>
<path d="M0 0 C-0.33 0.5775 -0.66 1.155 -1 1.75 C-2.27075898 4.19883862 -2.27075898 4.19883862 -2 8 C-0.26084364 10.22341381 -0.26084364 10.22341381 2 12.25 C2.7425 12.95640625 3.485 13.6628125 4.25 14.390625 C4.8275 14.92171875 5.405 15.4528125 6 16 C4.02 16.99 4.02 16.99 2 18 C-1.3 14.37 -4.6 10.74 -8 7 C-4.5 0 -4.5 0 0 0 Z " fill="#7A778A" transform="translate(108,189)"/>
<path d="M0 0 C5.87645137 0.80370649 9.95531026 3.74789028 14 8 C14.5625 11.4375 14.5625 11.4375 14 14 C8.90114613 10.35056652 4.22616534 6.64878188 0 2 C0 1.34 0 0.68 0 0 Z " fill="#2F2F32" transform="translate(129,227)"/>
<path d="M0 0 C0.66 0.33 1.32 0.66 2 1 C0.67256644 4.88699777 -0.9339786 7.38994768 -3.8125 10.3125 C-4.47894531 11.00988281 -5.14539063 11.70726562 -5.83203125 12.42578125 C-8.43469098 14.31564048 -9.85434424 14.32389824 -13 14 C-8.88380164 9.08064098 -4.59589638 4.47352044 0 0 Z " fill="#757289" transform="translate(255,188)"/>
<path d="M0 0 C-0.33 4.29 -0.66 8.58 -1 13 C-2.32 13.33 -3.64 13.66 -5 14 C-6.28425721 11.43148558 -5.99833238 9.84754463 -5.75 7 C-5.68296875 6.113125 -5.6159375 5.22625 -5.546875 4.3125 C-4.7975418 1.14389102 -3.29348168 0 0 0 Z " fill="#2A292E" transform="translate(322,163)"/>
<path d="M0 0 C1.98 0.495 1.98 0.495 4 1 C4.103125 1.9075 4.20625 2.815 4.3125 3.75 C5.01661609 7.07854877 6.00246723 8.36688862 8 11 C7.67 11.99 7.34 12.98 7 14 C3.40452465 11.37627474 0.80836444 9.11905232 -1 5 C-0.6875 2.1875 -0.6875 2.1875 0 0 Z " fill="#8A8899" transform="translate(195,58)"/>
<path d="M0 0 C0.66 0.66 1.32 1.32 2 2 C-3.28 7.28 -8.56 12.56 -14 18 C-14.66 17.34 -15.32 16.68 -16 16 C-14.54782324 14.49403892 -13.08807139 12.99537896 -11.625 11.5 C-10.81289062 10.6646875 -10.00078125 9.829375 -9.1640625 8.96875 C-7 7 -7 7 -5 7 C-4.731875 6.401875 -4.46375 5.80375 -4.1875 5.1875 C-3.01506533 3.02775192 -1.80630718 1.64209744 0 0 Z " fill="#010007" transform="translate(252,188)"/>
<path d="M0 0 C-0.99 0.495 -0.99 0.495 -2 1 C-1.25640327 6.55053286 -1.25640327 6.55053286 0 12 C-1.32 12 -2.64 12 -4 12 C-6.60018816 8.09971775 -6.15085514 4.52565431 -6 0 C-3.50907189 -1.24546405 -2.58919267 -0.7767578 0 0 Z " fill="#8B889A" transform="translate(161,59)"/>
<path d="M0 0 C-0.56460937 0.27070313 -1.12921875 0.54140625 -1.7109375 0.8203125 C-4.10939887 2.05637962 -6.35811431 3.4117594 -8.625 4.875 C-9.40101563 5.36742187 -10.17703125 5.85984375 -10.9765625 6.3671875 C-13.14270637 8.11515688 -13.84751052 9.51690902 -15 12 C-17.125 12.75 -17.125 12.75 -19 13 C-16.80839315 7.5854419 -13.71995675 4.29324255 -9 1 C-5.8035914 -0.06546953 -3.34252724 -0.07427838 0 0 Z " fill="#8C8A98" transform="translate(340,154)"/>
<path d="M0 0 C0.99 0.99 1.98 1.98 3 3 C-2.94 8.445 -2.94 8.445 -9 14 C-9.66 13.67 -10.32 13.34 -11 13 C-9.56177525 9.58139248 -7.78464276 7.72092162 -4.9375 5.375 C-2.02124288 3.04514448 -2.02124288 3.04514448 0 0 Z " fill="#06060C" transform="translate(224,213)"/>
<path d="M0 0 C0 0.99 0 1.98 0 3 C-2.19119502 5.15578177 -4.54836393 7.02754441 -6.93359375 8.96484375 C-9.12128253 11.11944839 -9.45925948 12.08123015 -10 15 C-12.0625 16.75 -12.0625 16.75 -14 18 C-15 15 -15 15 -13.875 12.5625 C-11.84594126 9.78945305 -9.81954154 7.9519903 -7 6 C-6.34 6 -5.68 6 -5 6 C-5 5.34 -5 4.68 -5 4 C-3.37373596 2.61767557 -1.7074998 1.28062485 0 0 Z " fill="#3D3D3F" transform="translate(223,213)"/>
<path d="M0 0 C1.96301592 3.50538557 2.95902388 7.13351728 4 11 C3.01 11.99 2.02 12.98 1 14 C-0.64363316 11.41995432 -2.0724615 8.92410441 -3 6 C-1.75 2.5 -1.75 2.5 0 0 Z " fill="#28272C" transform="translate(326,170)"/>
<path d="M0 0 C1.29315061 0.95632999 2.58446853 1.91513851 3.875 2.875 C4.59429687 3.40867188 5.31359375 3.94234375 6.0546875 4.4921875 C8 6 8 6 10 8 C10.125 10.625 10.125 10.625 10 13 C8.8944811 12.06409496 7.79064547 11.12620142 6.6875 10.1875 C6.07261719 9.66542969 5.45773438 9.14335937 4.82421875 8.60546875 C4.22222656 8.07566406 3.62023437 7.54585937 3 7 C2.42894531 6.52175781 1.85789063 6.04351562 1.26953125 5.55078125 C0 4 0 4 0 0 Z " fill="#868495" transform="translate(153,241)"/>
<path d="M0 0 C0.66 0.33 1.32 0.66 2 1 C0.58707905 5.8274799 -1.42974154 9.7162359 -4 14 C-4.33 14 -4.66 14 -5 14 C-5.602537 7.01057082 -5.602537 7.01057082 -3.88671875 4.1328125 C-2.66254412 2.69138998 -1.33721771 1.33721771 0 0 Z " fill="#27272A" transform="translate(328,162)"/>
<path d="M0 0 C0.66 0.33 1.32 0.66 2 1 C-0.26262636 3.32065386 -2.53643006 5.63003599 -4.8125 7.9375 C-5.77639648 8.9265332 -5.77639648 8.9265332 -6.75976562 9.93554688 C-7.38173828 10.56396484 -8.00371094 11.19238281 -8.64453125 11.83984375 C-9.50075073 12.71177368 -9.50075073 12.71177368 -10.37426758 13.60131836 C-12 15 -12 15 -15 16 C-12.77397185 9.32191555 -5.15634728 4.52725044 0 0 Z " fill="#5D5D5D" transform="translate(89,60)"/>
<path d="M0 0 C2.67857172 0.36196915 4.60980914 0.73987276 6.875 2.25 C8 4 8 4 7.6875 6.6875 C7.460625 7.450625 7.23375 8.21375 7 9 C5.8225266 8.26708288 4.65823146 7.51296199 3.5 6.75 C2.52546875 6.12351563 2.52546875 6.12351563 1.53125 5.484375 C1.0259375 4.99453125 0.520625 4.5046875 0 4 C0 2.68 0 1.36 0 0 Z " fill="#373736" transform="translate(99,198)"/>
<path d="M0 0 C-0.4640625 0.8353125 -0.4640625 0.8353125 -0.9375 1.6875 C-2.05959111 4.1296983 -2.51487947 6.36648855 -3 9 C-3.33 9.66 -3.66 10.32 -4 11 C-5.32 9.68 -6.64 8.36 -8 7 C-6.13932792 2.84926997 -4.83061881 0 0 0 Z " fill="#918E9F" transform="translate(108,189)"/>
<path d="M0 0 C0.66 0.33 1.32 0.66 2 1 C0.8141763 4.37503669 -0.27573689 6.64722731 -3 9 C-3.99 8.67 -4.98 8.34 -6 8 C-2.25 2.25 -2.25 2.25 0 0 Z " fill="#817F8F" transform="translate(255,188)"/>
<path d="M0 0 C0.66 0 1.32 0 2 0 C1.38461538 5.53846154 1.38461538 5.53846154 -0.5625 7.875 C-1.2740625 8.431875 -1.2740625 8.431875 -2 9 C-2.66 7.68 -3.32 6.36 -4 5 C-2.71937515 3.2925002 -1.38232443 1.62626404 0 0 Z " fill="#232327" transform="translate(359,176)"/>
<path d="M0 0 C0.99 0.33 1.98 0.66 3 1 C-1.625 6.875 -1.625 6.875 -5 8 C-5 5 -5 5 -2.5 2.3125 C-1.675 1.549375 -0.85 0.78625 0 0 Z " fill="#0B0A11" transform="translate(351,179)"/>
<path d="M0 0 C0 0.99 0 1.98 0 3 C-2.25 4.5 -2.25 4.5 -5 6 C-6.34631825 6.98244845 -7.68441297 7.97676564 -9 9 C-9.33 8.34 -9.66 7.68 -10 7 C-3.18421053 0 -3.18421053 0 0 0 Z " fill="#36363A" transform="translate(354,176)"/>
<path d="M0 0 C-0.7734375 0.37125 -0.7734375 0.37125 -1.5625 0.75 C-4.77184151 2.39581616 -7.87585664 4.1976096 -11 6 C-11.33 5.01 -11.66 4.02 -12 3 C-7.77050005 0.58314288 -4.87664009 -0.34833144 0 0 Z " fill="#7E7D85" transform="translate(340,154)"/>
<path d="M0 0 C1.65 0.99 3.3 1.98 5 3 C4.01 3.495 4.01 3.495 3 4 C3 4.66 3 5.32 3 6 C0.53199953 4.84826645 -1.04783565 3.95216435 -3 2 C-2.01 2 -1.02 2 0 2 C0 1.34 0 0.68 0 0 Z " fill="#222227" transform="translate(170,260)"/>
<path d="M0 0 C2.96175123 0.61277612 4.38058783 1.25372522 7 3 C6.67 3.99 6.34 4.98 6 6 C3.96166576 4.7260411 1.96147874 3.38938077 0 2 C0 1.34 0 0.68 0 0 Z " fill="#878495" transform="translate(123,217)"/>
<path d="M0 0 C1 3 1 3 -0.4375 6.1875 C-1.2109375 7.5796875 -1.2109375 7.5796875 -2 9 C-2.33 9 -2.66 9 -3 9 C-3.1875 5.625 -3.1875 5.625 -3 2 C-2.01 1.34 -1.02 0.68 0 0 Z " fill="#030308" transform="translate(326,167)"/>
<path d="M0 0 C0.598125 0.20625 1.19625 0.4125 1.8125 0.625 C0.389375 1.49125 0.389375 1.49125 -1.0625 2.375 C-3.94884098 4.45316551 -5.02845741 5.37968075 -6.1875 8.625 C-5.875 5.25 -5.875 5.25 -5.1875 1.625 C-2.1875 -0.375 -2.1875 -0.375 0 0 Z " fill="#6C6C6C" transform="translate(196.1875,54.375)"/>
<path d="M0 0 C0.86625 0.3403125 0.86625 0.3403125 1.75 0.6875 C0 2.25 0 2.25 -2.25 3.6875 C-4.5 3.375 -4.5 3.375 -6.25 2.6875 C-2.80384615 -0.38942308 -2.80384615 -0.38942308 0 0 Z " fill="#858297" transform="translate(234.25,211.3125)"/>
<path d="M0 0 C0.625 1.8125 0.625 1.8125 1 4 C0.01 5.485 0.01 5.485 -1 7 C-1.99 7 -2.98 7 -4 7 C-2.79618552 4.50638429 -1.54571278 2.31856917 0 0 Z " fill="#807D8C" transform="translate(187,249)"/>
<path d="" fill="#808080" transform="translate(0,0)"/>
</svg>
