<?xml version="1.0" ?>
<!-- Uploaded to: SVG Repo, www.svgrepo.com, Generator: SVG Repo Mixer Tools -->
<svg width="800px" height="800px" viewBox="0 0 32 32" xmlns="http://www.w3.org/2000/svg">
<defs>
<style>.cls-1{fill:#ff005c;}</style>
</defs>
<title/>
<g id="Drug">
<path class="cls-1" d="M8,5H8a5,5,0,0,1,5,5v6a0,0,0,0,1,0,0H3a0,0,0,0,1,0,0V10A5,5,0,0,1,8,5Z"/>
<path d="M8,4a6,6,0,0,0-6,6V22a6,6,0,0,0,12,0V10A6,6,0,0,0,8,4ZM8,6a4,4,0,0,1,4,4v5H4V10A4,4,0,0,1,8,6ZM8,26a4,4,0,0,1-4-4V17h8v5A4,4,0,0,1,8,26Z"/>
<path d="M23,9a7,7,0,1,0,7,7A7,7,0,0,0,23,9Zm-5,7a5,5,0,0,1,7.75-4.17l-6.92,6.92A5,5,0,0,1,18,16Zm5,5a5,5,0,0,1-2.75-.83l6.92-6.92A5,5,0,0,1,23,21Z"/>
<path class="cls-1" d="M28,16a5,5,0,0,1-7.75,4.17l6.92-6.92A5,5,0,0,1,28,16Z"/>
</g>
</svg>