<?xml version="1.0" encoding="iso-8859-1"?>
<!-- Uploaded to: SVG Repo, www.svgrepo.com, Generator: SVG Repo Mixer Tools -->
<svg height="800px" width="800px" version="1.1" id="Layer_1" xmlns="http://www.w3.org/2000/svg" xmlns:xlink="http://www.w3.org/1999/xlink" 
	 viewBox="0 0 511.999 511.999" xml:space="preserve">
<path style="fill:#FFD46E;" d="M256,49.021l19.609,130.723h13.072c27.074,0,49.021-21.947,49.021-49.021
	C337.702,85.6,301.122,49.021,256,49.021z"/>
<path style="fill:#FFE9B7;" d="M256,49.021c-45.122,0-81.702,36.58-81.702,81.702c0,27.074,21.947,49.021,49.021,49.021L256,245.106
	l19.609-65.362c16.245,0,29.413-21.947,29.413-49.021C305.021,85.6,283.074,49.021,256,49.021z"/>
<path style="fill:#F27524;" d="M322.723,147.063l19.609,130.723h13.072c27.074,0,49.021-21.947,49.021-49.021
	C404.426,183.643,367.846,147.063,322.723,147.063z"/>
<path style="fill:#F59249;" d="M371.745,228.765c0-45.122-21.947-81.702-49.021-81.702c-45.122,0-81.702,36.58-81.702,81.702
	c0,27.074,0,81.702,0,81.702l101.311-32.681C358.576,277.787,371.745,255.839,371.745,228.765z"/>
<path style="fill:#F9AF6E;" d="M189.277,147.063v185.191l32.681-54.468c27.074,0,49.021-21.947,49.021-49.021
	C270.979,183.643,234.399,147.063,189.277,147.063z"/>
<path style="fill:#FCCC92;" d="M238.298,228.765c0-45.122-21.947-81.702-49.021-81.702c-45.122,0-81.702,36.58-81.702,81.702
	c0,27.074,21.947,49.021,49.021,49.021l32.681,54.468l19.609-54.468C225.13,277.787,238.298,255.839,238.298,228.765z"/>
<path style="fill:#F59249;" d="M389.447,245.106l19.608,130.723h13.072c27.074,0,49.021-21.947,49.021-49.021
	C471.149,281.686,434.569,245.106,389.447,245.106z"/>
<path style="fill:#F9AF6E;" d="M438.468,326.808c0-45.122-21.947-81.702-49.021-81.702c-45.122,0-81.702,36.58-81.702,81.702
	c0,27.074,0,81.702,0,81.702l101.311-32.681C425.3,375.829,438.468,353.882,438.468,326.808z"/>
<path style="fill:#F59249;" d="M122.553,245.106l19.609,163.404l13.072-32.681c27.074,0,49.021-21.947,49.021-49.021
	C204.255,281.686,167.676,245.106,122.553,245.106z"/>
<path style="fill:#F9AF6E;" d="M122.553,245.106c-45.122,0-81.702,36.58-81.702,81.702c0,27.074,21.947,49.021,49.021,49.021
	l52.289,32.681v-32.681c16.245,0,29.413-21.947,29.413-49.021C171.574,281.686,149.627,245.106,122.553,245.106z"/>
<path style="fill:#FFD46E;" d="M256,245.106l19.609,174.298l13.072-43.574c27.074,0,49.021-21.947,49.021-49.021
	C337.702,281.686,301.122,245.106,256,245.106z"/>
<path style="fill:#FFE9B7;" d="M305.021,326.808c0-45.122-21.947-81.702-49.021-81.702c-45.122,0-81.702,36.58-81.702,81.702
	c0,27.074,21.947,49.021,49.021,49.021l52.289,43.574v-43.574C291.853,375.829,305.021,353.882,305.021,326.808z"/>
<path style="fill:#F9AF6E;" d="M443.915,392.17l-56.284,70.809h32.681c17.974,0,37.331-13.951,43.016-31.003l13.268-39.805H443.915z
	"/>
<path style="fill:#FFD46E;" d="M35.404,392.17l13.268,39.805c5.684,17.052,25.041,31.003,43.016,31.003h295.944
	c17.974,0,37.331-13.951,43.016-31.003l13.267-39.805H35.404z"/>
<path style="fill:#FFE9B7;" d="M487.489,375.829H24.511c-9.024,0-16.34,7.316-16.34,16.34c0,9.024,7.316,16.34,16.34,16.34h462.979
	c9.024,0,16.34-7.316,16.34-16.34C503.83,383.145,496.514,375.829,487.489,375.829z"/>
<path d="M487.489,367.659h-25.391c10.616-10.389,17.221-24.86,17.221-40.851c0-41.935-28.874-77.247-67.782-87.117
	c0.696-3.584,1.059-7.233,1.059-10.925c0-41.935-28.874-77.247-67.782-87.117c0.696-3.584,1.059-7.233,1.059-10.925
	c0-49.555-40.316-89.872-89.872-89.872c-42.998,0-80.104,30.611-88.231,72.785c-0.853,4.43,2.046,8.715,6.477,9.568
	c4.433,0.855,8.715-2.046,9.569-6.476C190.462,82.229,220.82,57.191,256,57.191c40.546,0,73.532,32.986,73.532,73.532
	c0,2.839-0.3,5.642-0.874,8.388c-1.964-0.129-3.938-0.218-5.935-0.218c-25.541,0-49.794,10.949-66.738,29.721
	c-16.46-18.237-40.267-29.721-66.709-29.721c-42.998,0-80.104,30.611-88.231,72.785c-0.853,4.43,2.046,8.715,6.477,9.568
	c4.43,0.857,8.715-2.046,9.569-6.476c6.646-34.498,37.005-59.536,72.184-59.536c40.546,0,73.532,32.986,73.532,73.532
	c0,2.839-0.3,5.642-0.874,8.388c-1.964-0.129-3.938-0.218-5.935-0.218c-26.443,0-50.249,11.484-66.709,29.721
	c-16.944-18.772-41.196-29.721-66.738-29.721c-49.556,0-89.872,40.317-89.872,89.872c0,15.991,6.605,30.462,17.221,40.851H24.511
	C10.995,367.659,0,378.655,0,392.17c0,13.515,10.995,24.511,24.511,24.511h10.451l5.959,17.878
	c6.839,20.518,29.139,36.591,50.766,36.591h328.624c21.628,0,43.927-16.072,50.766-36.591l5.959-17.878h10.451
	c13.516,0,24.511-10.996,24.511-24.511C511.999,378.655,501.005,367.659,487.489,367.659z M462.979,326.808
	c0,22.526-18.325,40.851-40.851,40.851h-93.476c10.616-10.389,17.221-24.86,17.221-40.851c0-17.112-4.811-33.119-13.145-46.748
	c13.92-16.86,34.736-26.784,56.72-26.784C429.993,253.276,462.979,286.262,462.979,326.808z M266.004,182.018
	c13.92-16.86,34.736-26.784,56.72-26.784c40.546,0,73.532,32.986,73.532,73.532c0,2.839-0.3,5.642-0.874,8.388
	c-1.964-0.129-3.938-0.218-5.935-0.218c-25.541,0-49.794,10.949-66.738,29.721c-11.716-12.981-27.156-22.536-44.619-26.966
	c0.696-3.584,1.059-7.233,1.059-10.925C279.149,211.654,274.338,195.647,266.004,182.018z M256,253.276
	c40.546,0,73.532,32.986,73.532,73.532c0,22.526-18.325,40.851-40.851,40.851h-65.362c-22.526,0-40.851-18.325-40.851-40.851
	C182.468,286.262,215.454,253.276,256,253.276z M49.021,326.808c0-40.546,32.986-73.532,73.532-73.532
	c21.983,0,42.8,9.924,56.72,26.784c-8.335,13.629-13.145,29.636-13.145,46.748c0,15.991,6.605,30.462,17.221,40.851H89.872
	C67.347,367.659,49.021,349.334,49.021,326.808z M487.489,400.34h-16.152c-0.029-0.001-0.059,0-0.087,0H106.213
	c-4.512,0-8.17,3.657-8.17,8.17c0,4.513,3.658,8.17,8.17,8.17h353.6l-4.237,12.71c-4.593,13.777-20.741,25.418-35.265,25.418H91.688
	c-14.523,0-30.672-11.641-35.265-25.418l-4.237-12.71h21.345c4.512,0,8.17-3.657,8.17-8.17c0-4.513-3.658-8.17-8.17-8.17H24.511
	c-4.506,0-8.17-3.665-8.17-8.17s3.665-8.17,8.17-8.17h462.979c4.506,0,8.17,3.665,8.17,8.17S491.995,400.34,487.489,400.34z"/>
<circle cx="87.149" cy="334.978" r="8.17"/>
<circle cx="119.83" cy="302.297" r="8.17"/>
<circle cx="392.17" cy="334.978" r="8.17"/>
<circle cx="330.894" cy="187.914" r="8.17"/>
</svg>